<mxfile host="app.diagrams.net" modified="2020-11-05T10:03:54.665Z" agent="5.0 (Windows NT 10.0; Win64; x64) AppleWebKit/537.36 (KHTML, like Gecko) Brave Chrome/83.0.4103.106 Safari/537.36" etag="GRwEbM-cmFWgDVdOyMDQ" version="13.9.1" type="github">
  <diagram id="zYsj_GCrEN45drpil_GK" name="Page-1">
    <mxGraphModel dx="2322" dy="2394" grid="1" gridSize="10" guides="1" tooltips="1" connect="1" arrows="1" fold="1" page="1" pageScale="1" pageWidth="900" pageHeight="1600" math="0" shadow="0">
      <root>
        <mxCell id="0" />
        <mxCell id="1" parent="0" />
        <mxCell id="FwraS_gR7j-mOwSKwiUB-2" value="&lt;b&gt;API Gateway&lt;/b&gt;" style="rounded=1;whiteSpace=wrap;html=1;" vertex="1" parent="1">
          <mxGeometry x="60" y="160" width="120" height="60" as="geometry" />
        </mxCell>
        <mxCell id="FwraS_gR7j-mOwSKwiUB-3" value="&lt;b&gt;UserService&lt;/b&gt;" style="rounded=1;whiteSpace=wrap;html=1;" vertex="1" parent="1">
          <mxGeometry x="360" y="60" width="120" height="60" as="geometry" />
        </mxCell>
        <mxCell id="FwraS_gR7j-mOwSKwiUB-4" value="&lt;b&gt;Users&lt;br&gt;DB&lt;/b&gt;" style="shape=cylinder3;whiteSpace=wrap;html=1;boundedLbl=1;backgroundOutline=1;size=15;" vertex="1" parent="1">
          <mxGeometry x="510" y="-30" width="60" height="80" as="geometry" />
        </mxCell>
        <mxCell id="FwraS_gR7j-mOwSKwiUB-5" value="" style="endArrow=classic;html=1;exitX=0.75;exitY=0;exitDx=0;exitDy=0;entryX=0;entryY=0.5;entryDx=0;entryDy=0;entryPerimeter=0;" edge="1" parent="1" source="FwraS_gR7j-mOwSKwiUB-3" target="FwraS_gR7j-mOwSKwiUB-4">
          <mxGeometry width="50" height="50" relative="1" as="geometry">
            <mxPoint x="350" y="230" as="sourcePoint" />
            <mxPoint x="400" y="180" as="targetPoint" />
            <Array as="points">
              <mxPoint x="450" y="10" />
            </Array>
          </mxGeometry>
        </mxCell>
        <mxCell id="FwraS_gR7j-mOwSKwiUB-6" value="" style="endArrow=classic;html=1;exitX=1;exitY=0.25;exitDx=0;exitDy=0;entryX=0.5;entryY=1;entryDx=0;entryDy=0;" edge="1" parent="1" source="FwraS_gR7j-mOwSKwiUB-2" target="FwraS_gR7j-mOwSKwiUB-3">
          <mxGeometry width="50" height="50" relative="1" as="geometry">
            <mxPoint x="350" y="230" as="sourcePoint" />
            <mxPoint x="400" y="180" as="targetPoint" />
            <Array as="points">
              <mxPoint x="420" y="175" />
            </Array>
          </mxGeometry>
        </mxCell>
        <mxCell id="FwraS_gR7j-mOwSKwiUB-7" value="&lt;u&gt;gRPC&lt;/u&gt;" style="text;html=1;strokeColor=none;fillColor=none;align=center;verticalAlign=middle;whiteSpace=wrap;rounded=0;" vertex="1" parent="1">
          <mxGeometry x="400" y="100" width="40" height="20" as="geometry" />
        </mxCell>
        <mxCell id="FwraS_gR7j-mOwSKwiUB-8" value="&lt;b&gt;MailerService&lt;/b&gt;" style="rounded=1;whiteSpace=wrap;html=1;" vertex="1" parent="1">
          <mxGeometry x="720" y="140" width="120" height="60" as="geometry" />
        </mxCell>
        <mxCell id="FwraS_gR7j-mOwSKwiUB-10" value="" style="endArrow=classic;startArrow=classic;html=1;exitX=0.5;exitY=0;exitDx=0;exitDy=0;entryX=1;entryY=0.5;entryDx=0;entryDy=0;" edge="1" parent="1" source="FwraS_gR7j-mOwSKwiUB-8" target="FwraS_gR7j-mOwSKwiUB-3">
          <mxGeometry width="50" height="50" relative="1" as="geometry">
            <mxPoint x="510" y="170" as="sourcePoint" />
            <mxPoint x="560" y="120" as="targetPoint" />
            <Array as="points">
              <mxPoint x="780" y="90" />
            </Array>
          </mxGeometry>
        </mxCell>
        <mxCell id="FwraS_gR7j-mOwSKwiUB-11" value="&lt;u&gt;gRPC&lt;/u&gt;" style="text;html=1;strokeColor=none;fillColor=none;align=center;verticalAlign=middle;whiteSpace=wrap;rounded=0;" vertex="1" parent="1">
          <mxGeometry x="760" y="180" width="40" height="20" as="geometry" />
        </mxCell>
        <mxCell id="FwraS_gR7j-mOwSKwiUB-12" value="&lt;b&gt;NotificationsQueue&lt;/b&gt;" style="shape=process;whiteSpace=wrap;html=1;backgroundOutline=1;size=0.13636363636363635;" vertex="1" parent="1">
          <mxGeometry x="340" y="280" width="220" height="50" as="geometry" />
        </mxCell>
        <mxCell id="FwraS_gR7j-mOwSKwiUB-30" style="edgeStyle=orthogonalEdgeStyle;rounded=0;orthogonalLoop=1;jettySize=auto;html=1;exitX=0;exitY=0.5;exitDx=0;exitDy=0;entryX=0.5;entryY=1;entryDx=0;entryDy=0;" edge="1" parent="1" source="FwraS_gR7j-mOwSKwiUB-13" target="FwraS_gR7j-mOwSKwiUB-13">
          <mxGeometry relative="1" as="geometry">
            <mxPoint x="20" y="640" as="targetPoint" />
            <Array as="points">
              <mxPoint x="40" y="480" />
              <mxPoint x="40" y="610" />
              <mxPoint x="180" y="610" />
            </Array>
          </mxGeometry>
        </mxCell>
        <mxCell id="FwraS_gR7j-mOwSKwiUB-13" value="&lt;b&gt;Parser&lt;/b&gt;" style="rounded=1;whiteSpace=wrap;html=1;" vertex="1" parent="1">
          <mxGeometry x="120" y="450" width="120" height="60" as="geometry" />
        </mxCell>
        <mxCell id="FwraS_gR7j-mOwSKwiUB-14" value="" style="endArrow=classic;html=1;exitX=0.5;exitY=0;exitDx=0;exitDy=0;entryX=0;entryY=0.5;entryDx=0;entryDy=0;" edge="1" parent="1" source="FwraS_gR7j-mOwSKwiUB-13" target="FwraS_gR7j-mOwSKwiUB-12">
          <mxGeometry width="50" height="50" relative="1" as="geometry">
            <mxPoint x="350" y="390" as="sourcePoint" />
            <mxPoint x="400" y="340" as="targetPoint" />
            <Array as="points">
              <mxPoint x="180" y="305" />
            </Array>
          </mxGeometry>
        </mxCell>
        <mxCell id="FwraS_gR7j-mOwSKwiUB-16" value="" style="endArrow=classic;html=1;exitX=0.5;exitY=1;exitDx=0;exitDy=0;entryX=1;entryY=0.5;entryDx=0;entryDy=0;" edge="1" parent="1" source="FwraS_gR7j-mOwSKwiUB-8" target="FwraS_gR7j-mOwSKwiUB-12">
          <mxGeometry width="50" height="50" relative="1" as="geometry">
            <mxPoint x="580" y="310" as="sourcePoint" />
            <mxPoint x="630" y="290" as="targetPoint" />
            <Array as="points">
              <mxPoint x="780" y="305" />
            </Array>
          </mxGeometry>
        </mxCell>
        <mxCell id="FwraS_gR7j-mOwSKwiUB-17" value="&lt;i&gt;Publisher&lt;/i&gt;" style="text;html=1;strokeColor=none;fillColor=none;align=center;verticalAlign=middle;whiteSpace=wrap;rounded=0;" vertex="1" parent="1">
          <mxGeometry x="190" y="420" width="60" height="20" as="geometry" />
        </mxCell>
        <mxCell id="FwraS_gR7j-mOwSKwiUB-18" value="&lt;i&gt;Consumer&lt;/i&gt;" style="text;html=1;strokeColor=none;fillColor=none;align=center;verticalAlign=middle;whiteSpace=wrap;rounded=0;" vertex="1" parent="1">
          <mxGeometry x="710" y="210" width="60" height="20" as="geometry" />
        </mxCell>
        <mxCell id="FwraS_gR7j-mOwSKwiUB-19" value="&lt;u&gt;HTTP&lt;/u&gt;" style="text;html=1;strokeColor=none;fillColor=none;align=center;verticalAlign=middle;whiteSpace=wrap;rounded=0;" vertex="1" parent="1">
          <mxGeometry x="100" y="200" width="40" height="20" as="geometry" />
        </mxCell>
        <mxCell id="FwraS_gR7j-mOwSKwiUB-20" value="&lt;b&gt;Posts&lt;br&gt;DB&lt;/b&gt;" style="shape=cylinder3;whiteSpace=wrap;html=1;boundedLbl=1;backgroundOutline=1;size=15;" vertex="1" parent="1">
          <mxGeometry x="310" y="440" width="60" height="80" as="geometry" />
        </mxCell>
        <mxCell id="FwraS_gR7j-mOwSKwiUB-21" value="" style="endArrow=classic;html=1;exitX=1;exitY=0.5;exitDx=0;exitDy=0;entryX=0;entryY=0.5;entryDx=0;entryDy=0;entryPerimeter=0;" edge="1" parent="1" source="FwraS_gR7j-mOwSKwiUB-13" target="FwraS_gR7j-mOwSKwiUB-20">
          <mxGeometry width="50" height="50" relative="1" as="geometry">
            <mxPoint x="270" y="420" as="sourcePoint" />
            <mxPoint x="320" y="370" as="targetPoint" />
            <Array as="points" />
          </mxGeometry>
        </mxCell>
        <mxCell id="FwraS_gR7j-mOwSKwiUB-25" value="" style="endArrow=classic;html=1;exitX=0;exitY=0.5;exitDx=0;exitDy=0;entryX=0.5;entryY=0;entryDx=0;entryDy=0;" edge="1" parent="1" source="FwraS_gR7j-mOwSKwiUB-2" target="FwraS_gR7j-mOwSKwiUB-2">
          <mxGeometry width="50" height="50" relative="1" as="geometry">
            <mxPoint x="30" y="290" as="sourcePoint" />
            <mxPoint x="80" y="240" as="targetPoint" />
            <Array as="points">
              <mxPoint x="-20" y="190" />
              <mxPoint x="-20" y="100" />
              <mxPoint x="120" y="100" />
            </Array>
          </mxGeometry>
        </mxCell>
        <mxCell id="FwraS_gR7j-mOwSKwiUB-27" value="/subscribe&lt;br&gt;{name, mail, site, tag}&lt;br&gt;&lt;i&gt;POST&lt;/i&gt;" style="text;html=1;strokeColor=none;fillColor=none;align=center;verticalAlign=middle;whiteSpace=wrap;rounded=0;" vertex="1" parent="1">
          <mxGeometry x="-10" y="100" width="120" height="70" as="geometry" />
        </mxCell>
        <mxCell id="FwraS_gR7j-mOwSKwiUB-29" value="UserScheme&lt;br&gt;{ name, mail, site, tag }" style="text;html=1;strokeColor=none;fillColor=none;align=center;verticalAlign=middle;whiteSpace=wrap;rounded=0;" vertex="1" parent="1">
          <mxGeometry x="560" y="-50" width="170" height="30" as="geometry" />
        </mxCell>
        <mxCell id="FwraS_gR7j-mOwSKwiUB-32" value="CheckUpdates" style="text;html=1;strokeColor=none;fillColor=none;align=center;verticalAlign=middle;whiteSpace=wrap;rounded=0;" vertex="1" parent="1">
          <mxGeometry x="50" y="520" width="90" height="20" as="geometry" />
        </mxCell>
        <mxCell id="FwraS_gR7j-mOwSKwiUB-33" value="PostScheme&lt;br&gt;{ tag, post_id, link }" style="text;html=1;align=center;verticalAlign=middle;resizable=0;points=[];autosize=1;" vertex="1" parent="1">
          <mxGeometry x="370" y="470" width="120" height="30" as="geometry" />
        </mxCell>
        <mxCell id="FwraS_gR7j-mOwSKwiUB-34" value="RabbitMQ" style="text;html=1;align=center;verticalAlign=middle;resizable=0;points=[];autosize=1;" vertex="1" parent="1">
          <mxGeometry x="415" y="260" width="70" height="20" as="geometry" />
        </mxCell>
        <mxCell id="FwraS_gR7j-mOwSKwiUB-37" value="&lt;b&gt;SMTPServer&lt;/b&gt;" style="rounded=1;whiteSpace=wrap;html=1;" vertex="1" parent="1">
          <mxGeometry x="1040" y="140" width="120" height="60" as="geometry" />
        </mxCell>
        <mxCell id="FwraS_gR7j-mOwSKwiUB-38" value="" style="endArrow=classic;html=1;exitX=1;exitY=0.5;exitDx=0;exitDy=0;entryX=0;entryY=0.5;entryDx=0;entryDy=0;" edge="1" parent="1" source="FwraS_gR7j-mOwSKwiUB-8" target="FwraS_gR7j-mOwSKwiUB-37">
          <mxGeometry width="50" height="50" relative="1" as="geometry">
            <mxPoint x="840" y="170" as="sourcePoint" />
            <mxPoint x="890" y="120" as="targetPoint" />
          </mxGeometry>
        </mxCell>
      </root>
    </mxGraphModel>
  </diagram>
</mxfile>
